<?xml version="1.0" encoding="UTF-8"?>
<svg width="512" height="512" viewBox="0 0 512 512" xmlns="http://www.w3.org/2000/svg">
  <!-- Градиентный фон -->
  <defs>
    <linearGradient id="bgGradient" x1="0%" y1="0%" x2="100%" y2="100%">
      <stop offset="0%" style="stop-color:#1e40af;stop-opacity:1" />
      <stop offset="100%" style="stop-color:#3b82f6;stop-opacity:1" />
    </linearGradient>
    <linearGradient id="carGradient" x1="0%" y1="0%" x2="100%" y2="100%">
      <stop offset="0%" style="stop-color:#ffffff;stop-opacity:1" />
      <stop offset="100%" style="stop-color:#e5e7eb;stop-opacity:1" />
    </linearGradient>
  </defs>
  
  <!-- Фон -->
  <rect width="512" height="512" rx="100" fill="url(#bgGradient)"/>
  
  <!-- Автомобиль силуэт -->
  <g transform="translate(80, 180)">
    <path d="M50 100 L80 60 L320 60 L350 100 L380 100 L380 140 L360 140 L360 160 L340 160 L340 140 L80 140 L80 160 L60 160 L60 140 L40 140 L40 100 Z" 
          fill="url(#carGradient)" stroke="#1f2937" stroke-width="3"/>
    
    <!-- Колеса -->
    <circle cx="110" cy="150" r="25" fill="#1f2937"/>
    <circle cx="110" cy="150" r="15" fill="#6b7280"/>
    <circle cx="310" cy="150" r="25" fill="#1f2937"/>
    <circle cx="310" cy="150" r="15" fill="#6b7280"/>
    
    <!-- Окна -->
    <path d="M90 70 L100 100 L320 100 L330 70 Z" fill="#3b82f6" opacity="0.8"/>
    
    <!-- Фары -->
    <circle cx="370" cy="110" r="8" fill="#fbbf24"/>
    <circle cx="50" cy="110" r="8" fill="#fbbf24"/>
  </g>
  
  <!-- Текст AutoBid -->
  <text x="256" y="320" font-family="Arial, sans-serif" font-size="36" font-weight="bold" 
        text-anchor="middle" fill="white">AutoBid</text>
  
  <!-- Молоток аукциона -->
  <g transform="translate(400, 50)">
    <rect x="0" y="20" width="60" height="15" rx="7" fill="#fbbf24"/>
    <rect x="25" y="35" width="10" height="40" rx="5" fill="#92400e"/>
    <circle cx="30" cy="15" r="8" fill="#92400e"/>
  </g>
  
  <!-- TJ флаг (полоски) -->
  <g transform="translate(50, 50)">
    <rect x="0" y="0" width="60" height="12" fill="#dc2626"/>
    <rect x="0" y="12" width="60" height="12" fill="white"/>
    <rect x="0" y="24" width="60" height="12" fill="#16a34a"/>
  </g>
</svg>