<svg xmlns="http://www.w3.org/2000/svg" viewBox="0 0 1200 600">
  <defs>
    <linearGradient id="premiumBg" x1="0%" y1="0%" x2="100%" y2="100%">
      <stop offset="0%" style="stop-color:#3b82f6"/>
      <stop offset="50%" style="stop-color:#6366f1"/>
      <stop offset="100%" style="stop-color:#9333ea"/>
    </linearGradient>
    <linearGradient id="carShine" x1="0%" y1="0%" x2="100%" y2="100%">
      <stop offset="0%" style="stop-color:#ffffff;stop-opacity:0.3"/>
      <stop offset="50%" style="stop-color:#ffffff;stop-opacity:0.2"/>
      <stop offset="100%" style="stop-color:#ffffff;stop-opacity:0.1"/>
    </linearGradient>
  </defs>
  
  <!-- Background -->
  <rect width="1200" height="600" fill="url(#premiumBg)"/>
  
  <!-- Luxury car silhouette -->
  <g transform="translate(300,200)">
    <!-- Main car body -->
    <path d="M50 150 L150 120 L250 115 L400 115 L500 120 L580 140 L620 160 L640 180 L630 200 L600 220 L50 220 Z" 
          fill="url(#carShine)" stroke="rgba(255,255,255,0.4)" stroke-width="2"/>
    
    <!-- Car roof (sleek sports car profile) -->
    <path d="M150 120 L250 90 L400 85 L500 95 L580 120 L500 120 L400 115 L250 115 Z" 
          fill="rgba(255,255,255,0.2)" stroke="rgba(255,255,255,0.3)" stroke-width="1"/>
    
    <!-- Windshield and windows -->
    <path d="M180 100 L240 75 L380 70 L480 95 L450 115 L200 120 Z" 
          fill="rgba(135,206,235,0.4)" stroke="rgba(255,255,255,0.3)" stroke-width="1"/>
    
    <!-- Side windows -->
    <rect x="270" y="95" width="80" height="25" rx="3" fill="rgba(135,206,235,0.3)"/>
    <rect x="370" y="90" width="90" height="30" rx="3" fill="rgba(135,206,235,0.3)"/>
    
    <!-- Premium wheels -->
    <circle cx="180" cy="210" r="25" fill="rgba(48,48,48,0.9)" stroke="rgba(255,255,255,0.4)" stroke-width="3"/>
    <circle cx="180" cy="210" r="15" fill="rgba(96,96,96,0.8)"/>
    <circle cx="180" cy="210" r="8" fill="rgba(192,192,192,0.7)"/>
    
    <circle cx="520" cy="210" r="25" fill="rgba(48,48,48,0.9)" stroke="rgba(255,255,255,0.4)" stroke-width="3"/>
    <circle cx="520" cy="210" r="15" fill="rgba(96,96,96,0.8)"/>
    <circle cx="520" cy="210" r="8" fill="rgba(192,192,192,0.7)"/>
    
    <!-- Headlights -->
    <ellipse cx="610" cy="150" rx="12" ry="18" fill="rgba(255,255,255,0.6)"/>
    <ellipse cx="610" cy="180" rx="12" ry="18" fill="rgba(255,255,255,0.6)"/>
    
    <!-- Grille -->
    <rect x="590" y="140" width="20" height="50" rx="3" fill="rgba(255,255,255,0.3)"/>
    <line x1="595" y1="145" x2="595" y2="185" stroke="rgba(255,255,255,0.4)" stroke-width="1"/>
    <line x1="600" y1="145" x2="600" y2="185" stroke="rgba(255,255,255,0.4)" stroke-width="1"/>
    <line x1="605" y1="145" x2="605" y2="185" stroke="rgba(255,255,255,0.4)" stroke-width="1"/>
    
    <!-- Side mirror -->
    <ellipse cx="160" cy="130" rx="6" ry="4" fill="rgba(255,255,255,0.3)"/>
    
    <!-- Door handle -->
    <rect x="320" y="140" width="8" height="3" rx="1" fill="rgba(255,255,255,0.4)"/>
  </g>
  
  <!-- Sparkle effects -->
  <g opacity="0.6">
    <circle cx="150" cy="150" r="3" fill="white"/>
    <circle cx="250" cy="100" r="2" fill="white"/>
    <circle cx="400" cy="180" r="2.5" fill="white"/>
    <circle cx="800" cy="120" r="2" fill="white"/>
    <circle cx="950" cy="160" r="1.5" fill="white"/>
    <circle cx="1050" cy="200" r="3" fill="white"/>
    
    <!-- Star shapes for premium feel -->
    <g transform="translate(100,300)">
      <path d="M0,-8 L2,2 L8,2 L3,6 L5,14 L0,10 L-5,14 L-3,6 L-8,2 L-2,2 Z" fill="rgba(255,255,255,0.4)"/>
    </g>
    <g transform="translate(1000,100)">
      <path d="M0,-6 L1.5,1.5 L6,1.5 L2.5,4.5 L4,10 L0,7.5 L-4,10 L-2.5,4.5 L-6,1.5 L-1.5,1.5 Z" fill="rgba(255,255,255,0.3)"/>
    </g>
  </g>
</svg>